<svg width="0" height="0" class="hidden">
  <symbol xmlns="http://www.w3.org/2000/svg" viewBox="0 0 512 512" id="heart">
    <path d="M378.667 21.333c-56.792 0-103.698 52.75-122.667 77.646-18.969-24.896-65.875-77.646-122.667-77.646C59.813 21.333 0 88.927 0 172c0 45.323 17.99 87.562 49.479 116.469a10.54 10.54 0 0 0 1.677 2.177l197.313 196.906c2.083 2.073 4.802 3.115 7.531 3.115s5.458-1.042 7.542-3.125L467.417 283.74l2.104-2.042c1.667-1.573 3.313-3.167 5.156-5.208a10.372 10.372 0 0 0 1.896-2.542C499.438 245.948 512 209.833 512 172c0-83.073-59.812-150.667-133.333-150.667zm80.156 240.615a9.929 9.929 0 0 0-.802 1.083c-1 1.146-2.094 2.156-3.177 3.188L255.99 464.927 68.667 277.979a10.706 10.706 0 0 0-2.479-3.177C37.677 249.906 21.333 212.437 21.333 172c0-71.313 50.24-129.333 112-129.333 61.063 0 113.177 79.646 113.698 80.448 3.938 6.083 14 6.083 17.938 0 .521-.802 52.635-80.448 113.698-80.448 61.76 0 112 58.021 112 129.333 0 33.604-11.313 65.552-31.844 89.948z"></path>
  </symbol>
  <symbol xmlns="http://www.w3.org/2000/svg" viewBox="0 0 512.002 512.002" id="map">
    <path d="M511.89 475.873l-29.997-165.398a7.514 7.514 0 1 0-14.788 2.681l12.683 69.933-97.782-113.58 65.766-14.678 9.738 5.421 4.228 23.316a7.516 7.516 0 0 0 14.789-2.681l-4.864-26.814a7.513 7.513 0 0 0-3.738-5.225l-15.343-8.541h-.001l-48.488-26.991h-.001L366.68 192.49l-.002-.001-.008-.005a7.458 7.458 0 0 0-.888-.417c-.095-.037-.192-.062-.289-.095a7.714 7.714 0 0 0-.638-.2c-.122-.031-.245-.049-.369-.073a7.685 7.685 0 0 0-.582-.099c-.132-.016-.263-.021-.396-.029a7.671 7.671 0 0 0-.567-.02c-.135.001-.269.011-.404.019a6.96 6.96 0 0 0-.962.125 7.88 7.88 0 0 0-.944.248 7.734 7.734 0 0 0-.517.198c-.132.056-.263.111-.394.175-.057.028-.116.047-.172.076l-17.168 8.949c12.772-23.815 19.224-46.88 19.224-68.946 0-57.965-47.158-105.123-105.123-105.123S151.364 74.43 151.364 132.395c0 22.28 6.572 45.579 19.594 69.64l-18.499-9.643c-.057-.03-.118-.05-.176-.078-.126-.062-.256-.116-.384-.17a7.765 7.765 0 0 0-.525-.201 7.878 7.878 0 0 0-1.347-.318 7.285 7.285 0 0 0-.551-.054c-.138-.009-.276-.018-.413-.02a7.801 7.801 0 0 0-.551.019c-.138.009-.276.014-.414.031-.187.022-.372.059-.557.095-.131.026-.263.045-.393.078-.205.052-.406.121-.607.19-.105.036-.212.064-.317.105a7.57 7.57 0 0 0-.885.416l-.008.005-.002.001-101.243 56.357a7.507 7.507 0 0 0-3.738 5.225L11.831 411.308a7.515 7.515 0 0 0 6.054 8.735 7.512 7.512 0 0 0 8.735-6.054l8.555-47.171 97.261-51.414-7.822 100.994-107.157 48.115 3.771-20.8a7.515 7.515 0 0 0-14.788-2.681L.121 475.874a7.515 7.515 0 0 0 10.471 8.196l121.168-54.405 121.117 54.382.009.004.041.018c.068.031.139.052.209.081a7.571 7.571 0 0 0 .668.242c.072.022.144.041.216.061a6.512 6.512 0 0 0 .754.163c.075.012.149.03.225.04l.153.02c.251.029.505.044.757.047.032 0 .064.006.096.006l.048-.003c.304-.002.606-.027.909-.066.037-.005.075-.003.113-.009.057-.008.113-.027.171-.036.235-.039.47-.09.702-.153.064-.017.129-.027.193-.045l.02-.004c.021-.006.04-.017.061-.024.292-.09.579-.193.862-.32l121.164-54.405 121.167 54.404c.117.052.237.091.357.137.118.046.234.097.355.137.157.052.318.091.478.132.099.026.195.058.296.079.193.042.388.069.583.096.07.009.138.025.208.033.267.029.534.044.801.044h.003c.365 0 .73-.037 1.094-.09a7.343 7.343 0 0 0 1.319-.31c.022-.008.044-.019.066-.026.232-.081.463-.17.689-.277.066-.031.123-.075.188-.108.189-.095.371-.204.553-.317.182-.111.363-.223.534-.35.059-.044.125-.075.184-.12.132-.103.247-.222.371-.334.099-.089.202-.173.297-.266.228-.225.436-.465.629-.714.036-.047.079-.088.115-.136.224-.304.422-.623.597-.955.049-.093.086-.192.132-.288.116-.244.223-.49.313-.745.045-.128.081-.258.119-.39a7.448 7.448 0 0 0 .293-1.902c.003-.123.013-.245.01-.37a6.985 6.985 0 0 0-.109-1.155zM379.797 216.992l-7.704 1.802-.493-6.365 8.197 4.563zm-16.394 84.226l-31.384-24.505a7.518 7.518 0 0 0-7.624-.968l-60.844 26.482v-8.235c4.546-3.703 14.875-12.433 27.255-24.962l67.797-29.784 4.8 61.972zm-6.99-90.24l.96 12.392-42.353 18.607a303.601 303.601 0 0 0 11.765-15.555l29.628-15.444zm-200.815 0l31.15 16.238c4.613 6.487 9.666 13.021 15.173 19.598a360.461 360.461 0 0 0 14.231 15.984l-63.86-9.138 3.306-42.682zm-21.79 86.7l-95.224 50.336 4.638-25.574.119-.659 92.37-48.681-1.903 24.578zm3.276-42.29l-90.335 47.609 7.752-42.744 85.91-47.823-2.159 27.881-1.168 15.077zm2.578 161.349l7.115-91.869 88.77 134.922-95.885-43.053zm108.828-28.964l-46.293-72.958 46.293 5.543v67.415zm0-82.553l-60.229-7.211a7.516 7.516 0 0 0-7.238 11.489l67.467 106.328v36.294l-99.819-151.715 2.458-31.728 82.913 11.864c6.253 5.803 11.322 10.112 14.447 12.685v11.994zm7.997-24.917c-18.977-16.005-90.093-80.494-90.093-147.907-.001-49.678 40.415-90.094 90.093-90.094s90.094 40.416 90.094 90.094c0 67.413-71.117 131.903-90.094 147.907zm7.033 185.299v-33.357l22.466 23.269-22.466 10.088zm37.04-16.632l-37.04-38.364V318.63l62.772-27.32 38.681 30.203 7.375 95.224-71.788 32.233zm72.706-215.017l26.055-6.093 18.478 10.286 10.224 5.692-53.075 11.845-1.682-21.73zm14.131 182.445l-5.867-75.75 96.54 116.464-90.673-40.714zm-7.878-101.727l-2.042-26.37-.086-1.117 107.69 125.09 6.905 38.073-112.467-135.676z"></path>
    <path d="M256.487 85.95a7.515 7.515 0 1 0 0 15.03c17.323 0 31.416 14.093 31.416 31.416 0 17.322-14.093 31.416-31.416 31.416s-31.416-14.093-31.416-31.416c0-8.287 3.198-16.106 9.006-22.018a7.513 7.513 0 0 0-.094-10.626 7.513 7.513 0 0 0-10.627.094c-8.586 8.739-13.314 20.299-13.314 32.55 0 25.61 20.835 46.446 46.446 46.446s46.446-20.836 46.446-46.446c-.001-25.611-20.836-46.446-46.447-46.446z"></path>
  </symbol>
  <symbol viewBox="0 0 480 480" xmlns="http://www.w3.org/2000/svg" id="compass">
    <path d="M240 0C107.453 0 0 107.453 0 240s107.453 240 240 240 240-107.453 240-240C479.852 107.516 372.484.148 240 0zm0 464C116.29 464 16 363.71 16 240S116.29 16 240 16s224 100.29 224 224c-.14 123.652-100.348 223.86-224 224zm0 0"></path>
    <path d="M240 40C129.543 40 40 129.543 40 240s89.543 200 200 200 200-89.543 200-200c-.125-110.406-89.594-199.875-200-200zm0 384c-101.621 0-184-82.379-184-184S138.379 56 240 56s184 82.379 184 184c-.113 101.574-82.426 183.887-184 184zm0 0"></path>
    <path d="M357.824 122.176a8 8 0 0 0-9.601-1.29l-142.825 81.512c-.085.059-.125.153-.214.204-.914.785-1.77 1.64-2.559 2.558-.05.086-.145.13-.2.215l-81.538 142.824a8.006 8.006 0 0 0 1.293 9.621 8.006 8.006 0 0 0 9.62 1.293l142.802-81.511c.086-.059.125-.153.214-.204.914-.785 1.77-1.64 2.559-2.558.05-.086.145-.13.2-.215l81.538-142.8a8 8 0 0 0-1.289-9.65zM149.313 330.688L211.12 222.44l46.48 46.438zm119.566-73.086l-46.399-46.403 108.247-61.808zM112 232H80a8 8 0 0 0 0 16h32a8 8 0 0 0 0-16zm288 0h-32a8 8 0 0 0 0 16h32a8 8 0 0 0 0-16zM240 120a8 8 0 0 0 8-8V80a8 8 0 0 0-16 0v32a8 8 0 0 0 8 8zm0 240a8 8 0 0 0-8 8v32a8 8 0 0 0 16 0v-32a8 8 0 0 0-8-8zm0 0"></path>
  </symbol>
  <symbol xmlns="http://www.w3.org/2000/svg" viewBox="0 0 480.1 480.1" id="worldwide">
    <path d="M240.135.05C144.085.036 57.277 57.289 19.472 145.586l-2.992.992 1.16 3.48c-49.776 122.766 9.393 262.639 132.159 312.415a239.87 239.87 0 0 0 90.265 17.577c132.548.02 240.016-107.416 240.036-239.964S372.684.069 240.135.05zm188.253 361.004l-12.324-12.316V320.05a7.99 7.99 0 0 0-.8-3.576l-31.2-62.312V224.05a8 8 0 0 0-3.56-6.656l-24-16a8.002 8.002 0 0 0-6.4-1.104l-29.392 7.344-49.368-21.184-6.792-47.584 18.824-18.816h40.408l13.6 20.44a8 8 0 0 0 5.344 3.448l48 8a7.933 7.933 0 0 0 3.84-.304l44.208-14.736c37.079 71.155 33.113 156.736-10.388 224.156zM395.392 78.882l-13.008 8.672-36.264-7.256-23.528-7.832a7.856 7.856 0 0 0-4.464-.176l-29.744 7.432-13.04-4.344 9.664-19.328h27.056a7.997 7.997 0 0 0 3.576-.84l27.68-13.84a224.823 224.823 0 0 1 52.072 37.512zM152.44 33.914l19.2 12.8a7.99 7.99 0 0 0 3.128 1.232l38.768 6.464-3.784 11.32-20.2 6.744a8 8 0 0 0-4.328 3.464l-22.976 38.288-36.904 22.144-54.4 7.768a8 8 0 0 0-6.88 7.912v24a8 8 0 0 0 2.344 5.656l13.656 13.656v13.744l-33.28-22.192-12.072-36.216A225.289 225.289 0 0 1 152.44 33.914zM129.664 296.21l-36.16-7.24-13.44-26.808v-18.8l29.808-29.808 11.032 22.072a8.001 8.001 0 0 0 7.16 4.424h51.472l21.672 36.12a8 8 0 0 0 6.856 3.88h22.24l-5.6 28.056-30.288 30.288a8.003 8.003 0 0 0-2.352 5.656v20l-28.8 21.6a8.002 8.002 0 0 0-3.2 6.4v28.896l-9.952-3.296-14.048-35.136V304.05a8 8 0 0 0-6.4-7.84zm-24.048 122.981C30.187 362.602-1.712 264.826 25.832 174.642l6.648 19.936a7.995 7.995 0 0 0 3.144 4.128l39.88 26.584-9.096 9.104a8 8 0 0 0-2.344 5.656v24a7.997 7.997 0 0 0 .84 3.576l16 32a8.003 8.003 0 0 0 5.6 4.264l33.6 6.712v73.448a8.003 8.003 0 0 0 .568 2.968l16 40a8.001 8.001 0 0 0 4.904 4.616l24 8a7.86 7.86 0 0 0 2.488.416 8 8 0 0 0 8-8v-36l28.8-21.6a8.002 8.002 0 0 0 3.2-6.4v-20.688l29.656-29.656a8.006 8.006 0 0 0 2.184-4.088l8-40a8 8 0 0 0-7.84-9.568h-27.472l-21.672-36.12a8 8 0 0 0-6.856-3.88h-51.056l-13.744-27.576a7.999 7.999 0 0 0-5.88-4.32 7.84 7.84 0 0 0-6.936 2.24l-10.384 10.344V192.05a8 8 0 0 0-2.344-5.656l-13.656-13.656v-13.752l49.136-7.016a8.037 8.037 0 0 0 2.984-1.064l40-24a7.996 7.996 0 0 0 2.736-2.736l22.48-37.464 21.192-7.072a7.918 7.918 0 0 0 5.056-5.056l8-24a8 8 0 0 0-6.272-10.4l-46.304-7.72-8.136-5.424a223.384 223.384 0 0 1 153.856 5.72l-14.616 7.296h-30.112a8 8 0 0 0-7.2 4.424l-16 32a8 8 0 0 0 4.632 11.16l24 8c1.44.489 2.99.551 4.464.176l29.744-7.432 21.792 7.256c.312.112.633.198.96.256l40 8a7.943 7.943 0 0 0 6.008-1.184l18.208-12.144a225.69 225.69 0 0 1 24.064 32.152l-39.36 13.12-42.616-7.104-14.08-21.12a8 8 0 0 0-6.616-3.56h-48a8 8 0 0 0-5.656 2.344l-24 24a8 8 0 0 0-2.264 6.792l8 56a8 8 0 0 0 4.8 6.216l56 24a7.907 7.907 0 0 0 5.088.408l28.568-7.144 17.464 11.664v27.72a7.99 7.99 0 0 0 .8 3.576l31.2 62.312v30.112a8 8 0 0 0 2.344 5.656l16.736 16.744c-74.223 98.933-214.595 118.965-313.528 44.741z"></path>
  </symbol>
</svg>